<!--?xml version="1.0" encoding="utf-8"?-->
<!-- Generator: Adobe Illustrator 18.1.1, SVG Export Plug-In . SVG Version: 6.00 Build 0)  -->

<svg version="1.1" id="_x32_" xmlns="http://www.w3.org/2000/svg" xmlns:xlink="http://www.w3.org/1999/xlink" x="0px" y="0px" viewBox="0 0 512 512" style="width: 48px; height: 48px; opacity: 1;" xml:space="preserve">
<style type="text/css">
	.st0{fill:#4B4B4B;}
</style>
<g>
	<path class="st0" d="M236.748,158.567H116.084c-22.679,0-41.063,18.38-41.063,41.063v246.672c0,36.283,29.41,65.698,65.697,65.698
		h71.396c36.287,0,65.697-29.414,65.697-65.698V199.63C277.811,176.947,259.427,158.567,236.748,158.567z M176.416,490.756
		c-5.604,0-10.141-4.534-10.141-10.137c0-5.597,4.537-10.138,10.141-10.138c5.6,0,10.137,4.541,10.137,10.138
		C186.553,486.222,182.016,490.756,176.416,490.756z M150.342,174.019h52.14c2.936,0,5.315,2.379,5.315,5.314
		c0,2.928-2.379,5.314-5.315,5.314h-52.14c-2.936,0-5.311-2.386-5.311-5.314C145.031,176.398,147.407,174.019,150.342,174.019z
		 M98.199,446.302V207.814h156.435v238.488c0,2.654-0.275,5.242-0.741,7.759H98.936C98.473,451.544,98.199,448.956,98.199,446.302z" style="fill: rgb(75, 75, 75);"></path>
	<path class="st0" d="M276.477,105.523l-7.223,17.05c20.701,8.756,37.154,25.74,45.358,46.768l17.245-6.739
		C321.824,136.94,301.827,116.268,276.477,105.523z" style="fill: rgb(75, 75, 75);"></path>
	<path class="st0" d="M281.43,52.313l-5.38,17.715c43.858,13.311,78.337,48.438,90.9,92.631l17.802-5.062
		C370.439,107.316,331.361,67.505,281.43,52.313z" style="fill: rgb(75, 75, 75);"></path>
	<path class="st0" d="M286.791,0l-4.504,17.96c67.498,16.912,120.632,70.672,136.68,138.51l18.012-4.266
		C419.289,77.584,361.042,18.647,286.791,0z" style="fill: rgb(75, 75, 75);"></path>
</g>
</svg>
