<!--?xml version="1.0" encoding="utf-8"?-->
<!-- Generator: Adobe Illustrator 15.1.0, SVG Export Plug-In . SVG Version: 6.00 Build 0)  -->

<svg version="1.1" id="_x32_" xmlns="http://www.w3.org/2000/svg" xmlns:xlink="http://www.w3.org/1999/xlink" x="0px" y="0px" width="512px" height="512px" viewBox="0 0 512 512" style="width: 48px; height: 48px; opacity: 1;" xml:space="preserve">
<style type="text/css">

	.st0{fill:#4B4B4B;}

</style>
<g>
	<path class="st0" d="M216.875,277.203c1.281,4.156,3.063,6.641,5.281,9.438c2.25,2.891,4.891,5.047,8,6.563
		c3.125,1.516,6.5,2.234,10.094,2.234c10.156,0,17.031-5.75,19.188-18c1.531,4,6.094,8.563,7.688,9.844
		c1.594,1.359,3.359,2.406,5.203,3.031c1.828,0.656,3.766,0.969,5.766,0.969c3.516,0,6.719-0.641,9.516-1.922
		s5.109-3.438,7.203-6.078c3.672-4.813,5.516-11.75,5.906-17.359h12.094v-10.484h-11.844V246h11.844v-10.469h-11.844v-18.969h-9.438
		c-2.094,0-3.375-0.156-3.766,2c0,0.156-0.078,0.406-0.156,0.797c0,0.328-0.172,4.484-0.328,5.438
		c-0.156,1.453-0.875,2.484-2.875,2.484h-51.438c-1.594,0-3.203-0.813-3.203-2.484c0-0.953-0.234-5.109-0.328-5.438
		c-0.063-0.391-0.063-0.641-0.156-0.797c-0.406-2.156-1.672-2-3.672-2h-10.641v18.969h-11.531V246h11.531v9.438h-11.531v10.484
		h11.688C215.281,269.75,215.938,273.922,216.875,277.203z M266.656,246.563h19.109v8.469c0,4.5-0.719,7.766-2.234,9.844
		c-1.438,2.094-3.922,3.125-7.375,3.125c-3.281,0-5.75-1.125-7.281-3.438c-1.5-2.313-2.219-5.766-2.219-10.25V246.563z
		 M230.406,246.969h19.359v10.875c0,2.313-0.156,4.313-0.641,6c-0.406,1.594-1.031,2.953-1.844,4
		c-0.797,1.031-1.75,1.844-2.875,2.313c-1.203,0.484-2.469,0.719-3.922,0.719c-1.359,0-2.641-0.234-3.828-0.625
		c-1.281-0.5-2.328-1.219-3.219-2.172c-0.953-1.047-1.672-2.328-2.234-4c-0.547-1.672-0.797-3.766-0.797-6.156V246.969z" style="fill: rgb(75, 75, 75);"></path>
	<polygon class="st0" points="380,496 132,496 132,53.359 116,53.359 116,512 396,512 396,53.359 380,53.359 	" style="fill: rgb(75, 75, 75);"></polygon>
	<path class="st0" d="M317.047,473.594c4-20.719,19.922-37.188,40.234-42.156V80.563c-15.125-3.688-27.844-13.766-34.953-27.203
		H189.688c-7.125,13.438-19.75,23.516-34.969,27.203v350.875c20.406,4.969,36.25,21.438,40.25,42.156H317.047z M256,420.313
		c-11.031,0-20-8.953-20-20c0-11.031,8.969-20,20-20c11.047,0,20,8.969,20,20C276,411.359,267.047,420.313,256,420.313z M256,91.688
		c11.047,0,20,8.953,20,20c0,11.031-8.953,20-20,20c-11.031,0-20-8.969-20-20C236,100.641,244.969,91.688,256,91.688z M171.688,256
		c0-46.563,37.75-84.313,84.313-84.313s84.328,37.75,84.328,84.313S302.563,340.313,256,340.313S171.688,302.563,171.688,256z" style="fill: rgb(75, 75, 75);"></path>
	<path class="st0" d="M448,0H64C37.5,0,16,21.5,16,48s21.5,48,48,48h36V37.328h312V96h36c26.5,0,48-21.5,48-48S474.5,0,448,0z" style="fill: rgb(75, 75, 75);"></path>
</g>
</svg>
