<!--?xml version="1.0" encoding="utf-8"?-->
<!-- Generator: Adobe Illustrator 18.1.1, SVG Export Plug-In . SVG Version: 6.00 Build 0)  -->

<svg version="1.1" id="_x32_" xmlns="http://www.w3.org/2000/svg" xmlns:xlink="http://www.w3.org/1999/xlink" x="0px" y="0px" viewBox="0 0 512 512" style="width: 256px; height: 256px; opacity: 1;" xml:space="preserve">
<style type="text/css">
	.st0{fill:#4B4B4B;}
</style>
<g>
	<path class="st0" d="M511.929,113.174c0-50.018-114.575-90.556-255.924-90.556S0.071,63.156,0.071,113.174
		c0,0-2.701,144.536,25.144,194.887c21.201,38.315,35.695,86.497,139.216,104.142v55.123c0,0,27.872,22.056,91.565,22.056
		s91.574-22.056,91.574-22.056v-55.123c103.511-17.644,118.015-65.826,139.207-104.142
		C514.63,257.71,511.929,113.174,511.929,113.174z M427.125,149.365c-45.265,16.016-106.023,24.83-171.12,24.83
		c-65.089,0-125.864-8.814-171.12-24.83C43.112,134.583,29.6,118.594,29.6,113.174c0-5.428,13.513-21.416,55.285-36.19
		c45.256-16.024,106.032-24.838,171.12-24.838c65.097,0,125.855,8.814,171.12,24.838c41.763,14.774,55.276,30.762,55.276,36.19
		C482.401,118.594,468.888,134.583,427.125,149.365z" style="fill: rgb(17, 16, 16);"></path>
</g>
</svg>
