<!--?xml version="1.0" encoding="utf-8"?-->
<!-- Generator: Adobe Illustrator 18.1.1, SVG Export Plug-In . SVG Version: 6.00 Build 0)  -->

<svg version="1.1" id="_x32_" xmlns="http://www.w3.org/2000/svg" xmlns:xlink="http://www.w3.org/1999/xlink" x="0px" y="0px" viewBox="0 0 512 512" style="width: 16px; height: 16px; opacity: 1;" xml:space="preserve">
<style type="text/css">
	.st0{fill:#4B4B4B;}
</style>
<g>
	<path class="st0" d="M300.468,146.63c-4.805-6.013-14.422-97.351-14.422-97.351c-1.974-12.832-1.512-14.325,1.376-20.435h0.52
		c7.961,0,14.422-6.455,14.422-14.423C302.364,6.454,295.903,0,287.942,0h-63.883c-7.967,0-14.428,6.454-14.428,14.422
		c0,7.968,6.461,14.423,14.428,14.423h0.52c2.882,6.11,3.351,7.603,1.376,20.435c0,0-9.617,91.338-14.422,97.351
		c-7.123,8.902-34.857,13.22-34.857,64.902c0,42.065,0,273.214,0,273.214c0,15.052,12.202,27.253,27.254,27.253h104.136
		c15.059,0,27.26-12.202,27.26-27.253c0,0,0-231.149,0-273.214C335.325,159.85,307.591,155.532,300.468,146.63z" style="fill: rgb(75, 75, 75);"></path>
</g>
</svg>
