<!--?xml version="1.0" encoding="utf-8"?-->
<!-- Generator: Adobe Illustrator 18.1.1, SVG Export Plug-In . SVG Version: 6.00 Build 0)  -->

<svg version="1.1" id="_x32_" xmlns="http://www.w3.org/2000/svg" xmlns:xlink="http://www.w3.org/1999/xlink" x="0px" y="0px" viewBox="0 0 512 512" style="width: 16px; height: 16px; opacity: 1;" xml:space="preserve">
<style type="text/css">
	.st0{fill:#4B4B4B;}
</style>
<g>
	<path class="st0" d="M509.618,179.753l-11.416-32.342c-2.374-6.706-8.71-11.192-15.824-11.192H443.53
		c-5.157-13.874-14.006-26.346-25.452-37.184c-17.643-16.656-41.36-29.776-69.024-38.948c-27.671-9.142-59.359-14.268-93.05-14.275
		c-51.358,0.038-98.006,11.831-132.97,31.879c-17.474,10.06-32.081,22.238-42.617,36.536c-5.049,6.852-9.096,14.213-11.978,21.991
		h-38.81c-7.115,0-13.458,4.486-15.824,11.192L2.389,179.753C0.809,184.239,0,188.964,0,193.72v3.26
		c0,6.49,5.257,11.747,11.747,11.747c0,0,13.412,0,20.812,0c14.013,0,25.505,9.712,31.009,19.586V349.22
		c0,8.802,1.564,17.413,4.47,25.56c5.087,14.29,14.152,27.078,25.884,38.185c17.644,16.65,41.36,29.775,69.024,38.941
		c27.68,9.149,59.359,14.275,93.058,14.282c51.35-0.038,98.006-11.831,132.969-31.887c17.466-10.051,32.081-22.23,42.618-36.528
		c5.257-7.145,9.473-14.838,12.379-22.993c2.898-8.147,4.47-16.757,4.462-25.56V228.313c5.504-9.874,16.997-19.586,31.017-19.586
		c7.4,0,20.812,0,20.812,0c6.49,0,11.739-5.257,11.739-11.747v-3.26C512,188.964,511.19,184.239,509.618,179.753z M418.702,349.22
		c0,5.303-0.917,10.445-2.744,15.593c-3.191,8.98-9.28,18.013-18.314,26.554c-13.497,12.818-33.53,24.272-57.925,32.311
		c-24.38,8.07-53.054,12.78-83.716,12.78c-46.718,0.046-88.85-11.022-118.156-27.925c-14.66-8.417-26.052-18.246-33.484-28.381
		c-3.73-5.064-6.489-10.198-8.317-15.339c-1.826-5.148-2.743-10.29-2.751-15.593V216.057c14.846,16.834,36.073,30.554,61.44,40.606
		c29.167,11.515,63.922,18.12,101.267,18.128c49.785-0.031,94.969-11.716,128.468-31.263c13.497-7.893,25.074-17.127,34.231-27.525
		V349.22z M138.904,193.936l32.057-8.386l11.839,19.231l-35.51,8.888L138.904,193.936z M242.546,227.157
		c0,1.063-0.116,2.104-0.301,3.122c-4.732,2.844-11.022,4.594-17.944,4.594c-6.175,0-11.839-1.388-16.364-3.707
		c-0.301-1.288-0.478-2.628-0.478-4.008c0-9.69,7.854-17.544,17.543-17.544C234.692,209.614,242.546,217.468,242.546,227.157z
		 M226.212,177.009c-0.354-0.632,1.033-2.158,4.001-4.355c1.48-1.095,3.361-2.351,5.611-3.762l1.758-1.071l0.932-0.555
		c0.393-0.216,0.81-0.455,1.242-0.632c1.734-0.778,3.785-1.179,5.92-1.025c2.135,0.154,4.092,0.871,5.696,1.889
		c1.504,1.017,2.444,1.78,3.561,2.612c2.096,1.619,3.838,3.06,5.211,4.294c2.736,2.481,3.961,4.131,3.553,4.732
		c-0.332,0.478-1.187,0.539-2.984-0.17l-31.633-1.796C227.299,177.672,226.49,177.51,226.212,177.009z M303.831,214.469
		l23.864,14.098l-22.778,20.611l-24.942-17.358L303.831,214.469z M294.274,182.59c0-7.924,6.428-14.344,14.352-14.344
		c7.924,0,14.352,6.421,14.352,14.344c0,0.871-0.092,1.726-0.239,2.551c-3.877,2.328-9.026,3.762-14.683,3.762
		c-5.056,0-9.689-1.14-13.389-3.029C294.42,184.809,294.274,183.723,294.274,182.59z M348.322,218.902
		c-0.44-0.586,0.285-1.95,2.096-3.908c0.901-0.98,2.074-2.112,3.515-3.361l1.126-0.956l0.593-0.501
		c0.285-0.208,0.594-0.446,0.932-0.64c1.31-0.817,3.13-1.325,4.988-1.032c1.865,0.277,3.36,1.218,4.416,2.235
		c0.802,0.802,1.488,1.519,2.143,2.22c1.295,1.404,2.344,2.652,3.138,3.715c1.58,2.151,2.15,3.584,1.657,4.116
		c-0.416,0.44-1.179,0.486-2.559-0.201l-19.724-1.51C349.346,219.511,348.668,219.357,348.322,218.902z M418.702,176.816
		c-1.024,3.662-2.458,7.268-4.285,10.83c-29.313-33.191-89.235-55.944-158.413-55.944c-69.179,0-129.109,22.754-158.414,55.944
		c-1.835-3.562-3.26-7.168-4.294-10.83V162.78c0.008-5.303,0.925-10.452,2.751-15.593c3.184-8.98,9.281-18.013,18.307-26.554
		c13.504-12.818,33.537-24.272,57.924-32.32c24.381-8.062,53.062-12.779,83.724-12.772c46.717-0.046,88.849,11.023,118.147,27.926
		c14.668,8.425,26.053,18.237,33.491,28.373c3.73,5.072,6.482,10.206,8.317,15.346c1.826,5.141,2.744,10.29,2.744,15.593V176.816z" style="fill: rgb(75, 75, 75);"></path>
</g>
</svg>
