<!--?xml version="1.0" encoding="utf-8"?-->
<!-- Generator: Adobe Illustrator 18.1.1, SVG Export Plug-In . SVG Version: 6.00 Build 0)  -->

<svg version="1.1" id="_x32_" xmlns="http://www.w3.org/2000/svg" xmlns:xlink="http://www.w3.org/1999/xlink" x="0px" y="0px" viewBox="0 0 512 512" style="width: 256px; height: 256px; opacity: 1;" xml:space="preserve">
<style type="text/css">
	.st0{fill:#4B4B4B;}
</style>
<g>
	<path class="st0" d="M503.693,423.619l-56.895-56.895c11.169-18.59,16.927-39.562,16.9-60.518
		c0.035-29.982-11.509-60.182-34.412-83.074c-22.882-22.901-53.082-34.432-83.082-34.417c-29.994-0.015-60.198,11.516-83.086,34.417
		c-22.893,22.892-34.444,53.092-34.409,83.074c-0.028,30.013,11.516,60.214,34.409,83.098c22.888,22.9,53.092,34.44,83.086,34.416
		c20.928,0.023,41.915-5.731,60.494-16.904l56.906,56.903c11.064,11.072,29.026,11.072,40.089,0
		C514.769,452.647,514.769,434.69,503.693,423.619z M397.215,357.229c-14.155,14.124-32.476,21.096-51.011,21.127
		c-18.536-0.031-36.869-7.003-51-21.127c-14.136-14.155-21.109-32.473-21.14-51.024c0.031-18.528,7.004-36.852,21.128-50.992
		c14.143-14.132,32.476-21.097,51.012-21.136c18.535,0.039,36.856,7.004,51.011,21.136c14.124,14.14,21.093,32.464,21.128,50.992
		C418.308,324.757,411.339,343.074,397.215,357.229z" style="fill: rgb(75, 75, 75);"></path>
	<path class="st0" d="M246.159,206.173c26.706-26.726,62.216-41.443,99.982-41.443c31.418,0,61.116,10.251,85.597,28.951V39.977
		h-163.9v99.135H163.9V39.977H0v351.786h233.666c-18.715-24.516-28.971-54.233-28.943-85.581
		C204.68,268.471,219.394,232.938,246.159,206.173z" style="fill: rgb(75, 75, 75);"></path>
</g>
</svg>
